<svg width="13" height="13" viewBox="0 0 13 13" fill="none" xmlns="http://www.w3.org/2000/svg">
<path d="M6.49825 3.16487C4.65267 3.16487 3.16319 4.65438 3.16319 6.5C3.16319 8.34562 4.65267 9.83513 6.49825 9.83513C8.34384 9.83513 9.83332 8.34562 9.83332 6.5C9.83332 4.65438 8.34384 3.16487 6.49825 3.16487ZM6.49825 8.66759C5.30472 8.66759 4.3307 7.69356 4.3307 6.5C4.3307 5.30644 5.30472 4.33241 6.49825 4.33241C7.69179 4.33241 8.6658 5.30644 8.6658 6.5C8.6658 7.69356 7.69179 8.66759 6.49825 8.66759ZM9.96991 2.251C9.539 2.251 9.19102 2.59899 9.19102 3.02991C9.19102 3.46082 9.539 3.80881 9.96991 3.80881C10.4008 3.80881 10.7488 3.46245 10.7488 3.02991C10.7489 2.92758 10.7289 2.82624 10.6898 2.73168C10.6507 2.63712 10.5933 2.55121 10.521 2.47885C10.4486 2.4065 10.3627 2.34913 10.2681 2.31003C10.1736 2.27094 10.0722 2.25088 9.96991 2.251ZM12.9993 6.5C12.9993 5.60239 13.0074 4.71292 12.957 3.81694C12.9066 2.77623 12.6692 1.85261 11.9082 1.0916C11.1456 0.328955 10.2236 0.0931713 9.18289 0.0427622C8.2853 -0.00764684 7.39584 0.000483674 6.49988 0.000483674C5.60229 0.000483674 4.71283 -0.00764684 3.81687 0.0427622C2.77618 0.0931713 1.85258 0.330582 1.09158 1.0916C0.328949 1.85424 0.0931695 2.77623 0.0427614 3.81694C-0.0076467 4.71454 0.000483665 5.60402 0.000483665 6.5C0.000483665 7.39598 -0.0076467 8.28708 0.0427614 9.18306C0.0931695 10.2238 0.330576 11.1474 1.09158 11.9084C1.8542 12.671 2.77618 12.9068 3.81687 12.9572C4.71446 13.0076 5.60391 12.9995 6.49988 12.9995C7.39747 12.9995 8.28693 13.0076 9.18289 12.9572C10.2236 12.9068 11.1472 12.6694 11.9082 11.9084C12.6708 11.1458 12.9066 10.2238 12.957 9.18306C13.009 8.28708 12.9993 7.39761 12.9993 6.5ZM11.5683 10.3343C11.4496 10.6303 11.3065 10.8514 11.0773 11.0791C10.848 11.3084 10.6285 11.4515 10.3325 11.5702C9.47721 11.91 7.44625 11.8336 6.49825 11.8336C5.55025 11.8336 3.51767 11.91 2.66236 11.5718C2.36641 11.4531 2.14527 11.31 1.91762 11.0807C1.68834 10.8514 1.54525 10.6319 1.42655 10.336C1.08832 9.47901 1.16475 7.44802 1.16475 6.5C1.16475 5.55198 1.08832 3.51936 1.42655 2.66403C1.54525 2.36808 1.68834 2.14693 1.91762 1.91928C2.14689 1.69163 2.36641 1.5469 2.66236 1.4282C3.51767 1.08997 5.55025 1.1664 6.49825 1.1664C7.44625 1.1664 9.47884 1.08997 10.3341 1.4282C10.6301 1.5469 10.8512 1.69 11.0789 1.91928C11.3082 2.14856 11.4513 2.36808 11.57 2.66403C11.9082 3.51936 11.8318 5.55198 11.8318 6.5C11.8318 7.44802 11.9082 9.47901 11.5683 10.3343Z" fill="#FAD234"/>
</svg>
